<?xml version="1.0" encoding="utf-8"?>
<!-- Generator: Adobe Illustrator 22.1.0, SVG Export Plug-In . SVG Version: 6.00 Build 0)  -->
<svg version="1.1" id="Layer_1" xmlns="http://www.w3.org/2000/svg" xmlns:xlink="http://www.w3.org/1999/xlink" x="0px" y="0px"
	 viewBox="0 0 100 100" style="enable-background:new 0 0 100 100;" xml:space="preserve">
<style type="text/css">
	.st0{fill:#FFFFFF;}
</style>
<g>
	<title>Artboard 643</title>
	<path class="st0" d="M93.9,59.8c0-7.7-4.7-14.6-11.9-17.4c-7.3-2.8-14.8-5.1-22.5-6.9V15.6c0-6.3-5.1-11.5-11.4-11.5
		c-0.6,0-1.3,0.1-1.9,0.2c-5.6,1.1-9.6,6-9.5,11.7v37.7c-3.8-2.2-7.9-4-12.1-5.3c-3.4-1-7.1-0.4-10,1.8c-2.9,2.1-4.6,5.6-4.6,9.2V60
		c0,4.5,2.7,8.6,6.9,10.4c13.3,6.1,28.2,23.9,28.4,24c0.7,0.9,1.8,1.4,2.9,1.4h42c2.1,0,3.8-1.7,3.8-3.8V59.8z M86.3,88.2H49.8
		c-4-4.5-17.2-18.9-29.9-24.7c-1.4-0.6-2.4-1.9-2.4-3.5v-0.6c0-1.2,0.6-2.3,1.5-3c0.9-0.7,2.1-0.9,3.2-0.6c4.6,1.4,11.1,4,15.5,8.4
		c1.5,1.5,3.9,1.5,5.4,0c0.7-0.7,1.1-1.6,1.1-2.6V16c-0.1-2,1.2-3.7,3.2-4.2c1.1-0.2,2.3,0.1,3.1,0.8c0.9,0.7,1.3,1.8,1.3,2.9v22.9
		c0,1.8,1.3,3.4,3.1,3.7c8.3,1.8,16.4,4.2,24.3,7.2c4.2,1.7,7,5.8,7,10.3V88.2z"/>
	<path class="st0" d="M9.9,30.9c2.1,0,3.8-1.7,3.8-3.8v-7.6h7.6c2.1,0,3.8-1.7,3.8-3.8s-1.7-3.8-3.8-3.8h-7.6
		c-4.2,0-7.6,3.4-7.6,7.6v7.6C6.1,29.2,7.8,30.9,9.9,30.9z"/>
	<path class="st0" d="M86.3,30.9c2.1,0,3.8-1.7,3.8-3.8v-7.6c0-4.2-3.4-7.6-7.6-7.6h-7.6c-2.1,0-3.8,1.7-3.8,3.8s1.7,3.8,3.8,3.8
		h7.6v7.6C82.5,29.2,84.2,30.9,86.3,30.9z"/>
</g>
</svg>
