<?xml version="1.0" encoding="utf-8"?>
<!-- Generator: Adobe Illustrator 22.1.0, SVG Export Plug-In . SVG Version: 6.00 Build 0)  -->
<svg version="1.1" id="Layer_1" xmlns="http://www.w3.org/2000/svg" xmlns:xlink="http://www.w3.org/1999/xlink" x="0px" y="0px"
	 viewBox="0 0 100 100" style="enable-background:new 0 0 100 100;" xml:space="preserve">
<style type="text/css">
	.st0{fill:#FFFFFF;}
</style>
<g>
	<path class="st0" d="M96,51.4c0-0.5,0-0.9,0-1.4C96,24.6,75.4,4,50,4S4,24.6,4,50s20.6,46,46,46c8.1,0,16.1-2.1,23.1-6.2
		c2.9-1.7,3.8-5.3,2.2-8.2c-1.7-2.9-5.3-3.8-8.2-2.2C61.9,82.4,56,84,50,84c-18.8,0-34-15.2-34-34s15.2-34,34-34s34,15.2,34,34
		c0,0.6,0,1.1,0,1.7c0,0.3,0,0.5,0,0.8c-0.3,3.3-3.1,6-6.5,6c-3.6,0-6.5-2.9-6.5-6.5V35c0-3.3-2.7-6-6-6c-2,0-3.8,1-4.9,2.6
		c-3-1.6-6.4-2.6-10.1-2.6c-11.6,0-21,9.4-21,21s9.4,21,21,21c5.6,0,10.7-2.2,14.5-5.8c3.3,3.3,7.9,5.3,13,5.3
		C87.7,70.5,96,62.2,96,52C96,51.8,96,51.6,96,51.4C96,51.4,96,51.4,96,51.4z M50,59c-5,0-9-4-9-9s4-9,9-9s9,4,9,9S55,59,50,59z"/>
</g>
</svg>
