<?xml version="1.0" encoding="utf-8"?>
<!-- Generator: Adobe Illustrator 22.1.0, SVG Export Plug-In . SVG Version: 6.00 Build 0)  -->
<svg version="1.1" id="Layer_1" xmlns="http://www.w3.org/2000/svg" xmlns:xlink="http://www.w3.org/1999/xlink" x="0px" y="0px"
	 viewBox="0 0 100 100" style="enable-background:new 0 0 100 100;" xml:space="preserve">
<style type="text/css">
	.st0{fill:#FFFFFF;}
</style>
<g>
	<g>
		<path class="st0" d="M61.5,23.8h-23c-5.2,0-9.4,4.2-9.4,9.4v13c0,5.7,4.6,10.3,10.3,10.3h21.1c5.7,0,10.3-4.6,10.3-10.3v-13
			C70.9,28,66.7,23.8,61.5,23.8z M66,46.6c0,3-2.4,5.5-5.5,5.5h-21c-3,0-5.5-2.4-5.5-5.5v-13c0-3,2.4-5.5,5.5-5.5h21
			c3,0,5.5,2.4,5.5,5.5L66,46.6L66,46.6z"/>
		<path class="st0" d="M38.5,22.1h3.1v-5.5c0-4.6,3.8-8.4,8.4-8.4s8.4,3.8,8.4,8.4v5.5h3.1c0.9,0,1.8,0.1,2.6,0.3v-5.8
			c0-7.8-6.3-14.1-14.1-14.1S35.9,8.8,35.9,16.6v5.8C36.7,22.2,37.6,22.1,38.5,22.1z"/>
		<path class="st0" d="M59,30.8H41c-2,0-3.6,1.6-3.6,3.6v11.4c0,2,1.6,3.6,3.6,3.6h18c2,0,3.6-1.6,3.6-3.6V34.4
			C62.7,32.4,61,30.8,59,30.8z M52.1,40.8V44c0,1.2-1,2.1-2.1,2.1c-1.2,0-2.1-1-2.1-2.1v-3.2c-0.9-0.7-1.6-1.8-1.6-3
			c0-2,1.6-3.7,3.7-3.7c2,0,3.7,1.6,3.7,3.7C53.7,39,53.1,40.1,52.1,40.8z"/>
	</g>
	<g>
		<path class="st0" d="M79.4,62.1H20.6c-5.1,0-9.3,4.2-9.3,9.3v16.7c0,5.1,4.2,9.3,9.3,9.3h58.8c5.1,0,9.3-4.2,9.3-9.3V71.4
			C88.7,66.3,84.6,62.1,79.4,62.1z M82.6,88.2c0,1.8-1.4,3.2-3.2,3.2H20.6c-1.8,0-3.2-1.4-3.2-3.2V71.4c0-1.8,1.4-3.2,3.2-3.2h58.8
			c1.8,0,3.2,1.4,3.2,3.2C82.6,71.4,82.6,88.2,82.6,88.2z"/>
		<g>
			<path class="st0" d="M55.6,74.2c-0.8-0.8-2.1-0.8-2.9,0L50,76.8l-2.7-2.7c-0.8-0.8-2.1-0.8-2.9,0c-0.8,0.8-0.8,2.1,0,2.9l2.7,2.7
				l-2.7,2.7c-0.8,0.8-0.8,2.1,0,2.9c0.8,0.8,2.1,0.8,2.9,0l2.7-2.7l2.7,2.7c0.8,0.8,2.1,0.8,2.9,0c0.8-0.8,0.8-2.1,0-2.9L53,79.8
				l2.7-2.7C56.5,76.3,56.5,75,55.6,74.2z"/>
			<path class="st0" d="M73.9,79.8l2.7-2.7c0.8-0.8,0.8-2.1,0-2.9c-0.8-0.8-2.1-0.8-2.9,0l-2.7,2.7l-2.7-2.7c-0.8-0.8-2.1-0.8-2.9,0
				c-0.8,0.8-0.8,2.1,0,2.9l2.7,2.7l-2.7,2.7c-0.8,0.8-0.8,2.1,0,2.9c0.8,0.8,2.1,0.8,2.9,0l2.7-2.7l2.7,2.7c0.8,0.8,2.1,0.8,2.9,0
				c0.8-0.8,0.8-2.1,0-2.9L73.9,79.8z"/>
			<path class="st0" d="M34.7,74.2c-0.8-0.8-2.1-0.8-2.9,0l-2.7,2.7l-2.7-2.7c-0.8-0.8-2.1-0.8-2.9,0c-0.8,0.8-0.8,2.1,0,2.9
				l2.7,2.7l-2.7,2.7c-0.8,0.8-0.8,2.1,0,2.9c0.8,0.8,2.1,0.8,2.9,0l2.7-2.7l2.7,2.7c0.8,0.8,2.1,0.8,2.9,0c0.8-0.8,0.8-2.1,0-2.9
				l-2.7-2.7l2.7-2.7C35.6,76.3,35.6,75,34.7,74.2z"/>
		</g>
	</g>
</g>
</svg>
