<?xml version="1.0" encoding="utf-8"?>
<!-- Generator: Adobe Illustrator 22.1.0, SVG Export Plug-In . SVG Version: 6.00 Build 0)  -->
<svg version="1.1" id="Layer_1" xmlns="http://www.w3.org/2000/svg" xmlns:xlink="http://www.w3.org/1999/xlink" x="0px" y="0px"
	 viewBox="0 0 100 100" style="enable-background:new 0 0 100 100;" xml:space="preserve">
<style type="text/css">
	.st0{fill:#FFFFFF;}
</style>
<path class="st0" d="M46,46.1h43.9c5.3,0,5.3,8.1,0,8.1H46C40.7,54.2,40.7,46.1,46,46.1z M18.2,38c6.5,0,11.8,5.3,11.8,12.2
	c0,6.5-5.3,11.8-11.8,11.8c-6.9,0-12.2-5.3-12.2-11.8C6.1,43.3,11.4,38,18.2,38z M18.2,40.2c-5.6,0-10,4.4-10,10
	c0,5.3,4.4,9.7,10,9.7c5.3,0,9.7-4.4,9.7-9.7C27.9,44.5,23.5,40.2,18.2,40.2z M18.2,69.2c6.5,0,11.8,5.3,11.8,12.2
	c0,6.5-5.3,11.8-11.8,11.8c-6.9,0-12.2-5.3-12.2-11.8C6.1,74.5,11.4,69.2,18.2,69.2z M18.2,71.3c-5.6,0-10,4.4-10,10
	c0,5.3,4.4,9.7,10,9.7c5.3,0,9.7-4.4,9.7-9.7C27.9,75.7,23.5,71.3,18.2,71.3z M46,14.9h43.9c5.3,0,5.3,8.1,0,8.1H46
	C40.7,23,40.7,14.9,46,14.9z M46,77.3h43.9c5.3,0,5.3,8.1,0,8.1H46C40.7,85.4,40.7,77.3,46,77.3z"/>
<path class="st0" d="M18.2,6.8C11.4,6.8,6.1,12.1,6.1,19c0,6.5,5.3,11.8,12.2,11.8c6.5,0,11.8-5.3,11.8-11.8
	C30.1,12.1,24.8,6.8,18.2,6.8z M26,14.9l-8.4,10.3c-0.6,0.9-2.2,0.9-2.8,0.3l-4.4-4.4c-1.9-1.9,0.9-4.7,2.8-2.8l2.8,2.8l6.9-8.7
	C24.5,10.3,27.6,12.8,26,14.9z"/>
</svg>
