<?xml version="1.0" encoding="utf-8"?>
<!-- Generator: Adobe Illustrator 22.1.0, SVG Export Plug-In . SVG Version: 6.00 Build 0)  -->
<svg version="1.1" id="Layer_1" xmlns="http://www.w3.org/2000/svg" xmlns:xlink="http://www.w3.org/1999/xlink" x="0px" y="0px"
	 viewBox="0 0 493 245" style="enable-background:new 0 0 493 245;" xml:space="preserve">
<style type="text/css">
	.st0{fill:url(#SVGID_1_);}
	.st1{fill:url(#SVGID_2_);}
	.st2{fill:url(#SVGID_3_);}
	.st3{fill:url(#SVGID_4_);}
	.st4{fill:url(#SVGID_5_);}
	.st5{fill:#FFFFFF;}
</style>
<g>
	<g>
		<g>
			<linearGradient id="SVGID_1_" gradientUnits="userSpaceOnUse" x1="357.8786" y1="179.0435" x2="395.9222" y2="137.1179">
				<stop  offset="8.141706e-03" style="stop-color:#FFFFFF"/>
				<stop  offset="0.3" style="stop-color:#FFFFFF"/>
				<stop  offset="1" style="stop-color:#FFFFFF;stop-opacity:0"/>
			</linearGradient>
			<path class="st0" d="M393.9,135.8c-8.3,10.8-21.4,17.8-36,17.8v19.3c20.9,0,39.5-9.9,51.4-25.3L393.9,135.8z"/>
		</g>
		<g>
			<linearGradient id="SVGID_2_" gradientUnits="userSpaceOnUse" x1="75.7008" y1="179.0435" x2="113.7444" y2="137.1179">
				<stop  offset="6.878931e-03" style="stop-color:#FFFFFF"/>
				<stop  offset="0.3" style="stop-color:#FFFFFF"/>
				<stop  offset="1" style="stop-color:#FFFFFF;stop-opacity:0"/>
			</linearGradient>
			<path class="st1" d="M111.8,135.8c-8.3,10.8-21.4,17.8-36,17.8v19.3c20.9,0,39.5-9.9,51.4-25.3L111.8,135.8z"/>
		</g>
		<linearGradient id="SVGID_3_" gradientUnits="userSpaceOnUse" x1="449.4843" y1="137.841" x2="473.4737" y2="161.8304">
			<stop  offset="1.026926e-02" style="stop-color:#FFFFFF"/>
			<stop  offset="1" style="stop-color:#FFFFFF;stop-opacity:0"/>
		</linearGradient>
		<path class="st2" d="M460.5,129c0,14.1,6.4,20.2,17.7,27.9l-11,15.8c-16.5-10.8-26-23.2-26-43.8H460.5z"/>
		<linearGradient id="SVGID_4_" gradientUnits="userSpaceOnUse" x1="247.0057" y1="65.2415" x2="251.5378" y2="106.8545">
			<stop  offset="8.628145e-03" style="stop-color:#FFFFFF"/>
			<stop  offset="1" style="stop-color:#FFFFFF;stop-opacity:0"/>
		</linearGradient>
		<path class="st3" d="M275,103.3h-19.3l0-6.4c0-19.1-15.2-33.9-33.8-34.2V43.4c29.3,0.3,53.1,23.8,53.1,53.5V103.3z"/>
		<linearGradient id="SVGID_5_" gradientUnits="userSpaceOnUse" x1="264.3773" y1="93.4952" x2="265.3611" y2="103.5177">
			<stop  offset="0" style="stop-color:#C75E8D"/>
			<stop  offset="1" style="stop-color:#C75E8D;stop-opacity:0"/>
		</linearGradient>
		<line class="st4" x1="275" y1="103.3" x2="255.7" y2="103.3"/>
		<rect x="255.7" y="103.3" class="st5" width="19.3" height="67.6"/>
		<g>
			<path class="st5" d="M357.9,43.4c-35.8,0-64.7,29-64.7,64.7s29,64.7,64.7,64.7c0.1,0,0.2,0,0.4,0v-19.3c-0.1,0-0.2,0-0.4,0
				c-25.1,0-45.4-20.3-45.4-45.4s20.3-45.4,45.4-45.4c21.2,0,39.2,14.6,44.2,34.3l-47.9,0v19.3h67.6V97
				C416.5,66.5,389.9,43.4,357.9,43.4z"/>
			<path class="st5" d="M75.7,43.4C40,43.4,11,72.4,11,108.1s29,64.7,64.7,64.7c0.1,0,0.3,0,0.4,0v-19.3c-0.1,0-0.3,0-0.4,0
				c-25.1,0-45.4-20.3-45.4-45.4s20.3-45.4,45.4-45.4c21.2,0,39.2,14.6,44.2,34.3L72,97v19.3h67.6V97
				C134.4,66.5,107.7,43.4,75.7,43.4z"/>
			<path class="st5" d="M460.5,129.1V3.5h-19.3v125.6c0,0.1,0,0.2,0,0.3h19.3C460.5,129.4,460.5,129.2,460.5,129.1z"/>
			<path class="st5" d="M221.3,43.4c-16.8,0-32,6.7-43,17.6V48.7H159v67.6h19.3v-16c2.9-15.5,16.7-37.6,43-37.6c0.3,0,0.6,0,0.9,0
				V43.4C221.9,43.4,221.6,43.4,221.3,43.4z"/>
		</g>
	</g>
	<g>
		<path class="st5" d="M171.7,220.9c-0.2-2.9-2.1-4.3-5.2-4.3c-3.5,0-5.7,3.6-5.7,8c0,4.4,2.2,8.1,5.7,8.1c3,0,5-1.8,5.2-4.4h2.5
			c-0.6,4.4-3.1,6.5-7.4,6.5c-5.7,0-8.4-4.9-8.4-10.1c0-5.2,2.8-10.1,8.5-10.1c3.9,0,7.1,2.4,7.3,6.4H171.7z"/>
		<path class="st5" d="M195.8,224.6c0,5-2.8,10.1-8.9,10.1s-8.9-5.1-8.9-10.1c0-5,2.8-10.1,8.9-10.1S195.8,219.6,195.8,224.6z
			 M186.9,216.6c-4.6,0-6.4,4.5-6.4,8c0,3.5,1.8,8,6.4,8s6.4-4.5,6.4-8C193.3,221.1,191.5,216.6,186.9,216.6z"/>
		<path class="st5" d="M214.4,231.4l-0.1-0.2c-1.6,2.3-3.9,3.5-6.5,3.5c-5.7,0-7.8-5.4-7.8-10.2c0-4.9,2.2-10,7.8-10
			c2.5,0,5.2,1.2,6.5,3.5l0.1-0.1v-11.2h2.3v23.1c0,1.5,0.1,3,0.2,4.3h-2.4L214.4,231.4z M208.2,216.6c-4.3,0-5.7,4-5.7,7.7
			c0,3.5,1,8.4,5.4,8.4c5,0,6.5-4.1,6.5-8.5C214.3,220.3,212.6,216.6,208.2,216.6z"/>
		<path class="st5" d="M224.4,225.2c0.1,4.1,1.9,7.5,6.6,7.5c2.7,0,4.9-1.9,5.5-4.6h2.4c-1.2,4.6-4,6.6-8.6,6.6
			c-5.7,0-8.4-4.9-8.4-10.1c0-5.2,2.8-10.1,8.5-10.1c6.4,0,8.7,4.7,8.7,10.6H224.4z M236.7,223.1c-0.3-3.7-2.2-6.5-6.2-6.5
			c-3.7,0-5.7,3.1-6,6.5H236.7z"/>
		<path class="st5" d="M247.2,234.2h-2.3v-14.8c0-1.5-0.1-3-0.2-4.3h2.4l0.1,2.8l0.1,0.1c1.3-2.4,3.5-3.5,6-3.5
			c6.2,0,6.7,5.5,6.7,7.7v11.9h-2.3v-12.3c0-3.3-1.9-5.2-5-5.2c-3.8,0-5.5,3.2-5.5,6.6V234.2z"/>
		<path class="st5" d="M273.1,214.5c3.6,0,6.6,1.3,7,5.3h-2.5c-0.2-2.4-2.4-3.2-4.7-3.2c-2.1,0-4.3,0.8-4.3,3.1
			c0,2.8,3.7,2.5,8.9,4.4c2,0.7,3.2,2.4,3.2,4.4c0,4.3-4,6.2-8,6.2c-3.3,0-7.1-1.6-7.2-5.8h2.5c0.2,2.8,2.7,3.7,5.3,3.7
			c2.4,0,5-1.1,5-3.8c0-2.7-3-3.2-6-3.9c-3-0.7-6-1.6-6-5.1C266.1,215.9,269.8,214.5,273.1,214.5z"/>
		<path class="st5" d="M297.3,220.7c-0.2-3.1-1.8-4.1-4.5-4.1c-2.4,0-4.4,0.7-4.7,3.3h-2.4c0.6-3.9,3.5-5.4,7.1-5.4
			c4.2,0,6.8,1.9,6.8,6.3v9c0,1.5,0.1,3,0.2,4.3h-2.4l-0.1-2.8h-0.1l-0.1,0.3c-0.8,1.6-3.4,3.1-6,3.1c-3.5,0-6.3-2.2-6.3-5.9
			c0-2.6,1.6-4.6,3.8-5.5c2.5-1.1,5.9-0.7,8.6-0.9V220.7z M291.6,232.6c5,0,5.9-4.1,5.7-8.1c-3.2,0.1-10-0.5-10,4.3
			C287.3,231.4,289.3,232.6,291.6,232.6z"/>
		<path class="st5" d="M315,222.9h9.6v2.3H315V222.9z"/>
		<path class="st5" d="M341.4,225.2c0.1,4.1,1.9,7.5,6.6,7.5c2.7,0,4.9-1.9,5.5-4.6h2.4c-1.2,4.6-4,6.6-8.6,6.6
			c-5.7,0-8.4-4.9-8.4-10.1c0-5.2,2.8-10.1,8.5-10.1c6.4,0,8.7,4.7,8.7,10.6H341.4z M353.7,223.1c-0.3-3.7-2.2-6.5-6.2-6.5
			c-3.7,0-5.7,3.1-6,6.5H353.7z"/>
		<path class="st5" d="M364.2,217.9L364.2,217.9c1.4-2.3,3.6-3.4,6-3.4c3,0,5.4,1.7,6.2,4.2c1.4-2.2,3.6-4.2,6.6-4.2
			c6.2,0,6.7,5.5,6.7,7.7v11.9h-2.3v-12.3c0-3.3-1.9-5.2-5-5.2c-3.8,0-5.5,3.2-5.5,6.6v11h-2.3v-12.3c0-3.3-1.9-5.2-5-5.2
			c-3.8,0-5.5,3.2-5.5,6.6v11h-2.3v-14.8c0-1.5-0.1-3-0.2-4.3h2.4L364.2,217.9z"/>
		<path class="st5" d="M409.7,215.1h2.4c-0.1,1.3-0.2,2.8-0.2,4.3v11.4c0,3.8,0.2,7.8-4,9.8c-1.5,0.7-2.5,0.9-4.3,0.9
			c-3.5,0-7.6-1.2-7.6-5.1h2.5c0.3,2.3,3,3,5.4,3c3,0,5.7-2.1,5.8-5.3v-3.6h-0.1c-1.1,2.2-3.7,3.6-6.2,3.6c-5.7,0-8.2-4.4-8.2-9.6
			c0-5.2,2.3-10,8.1-10c2.8,0,4.7,1.3,6.3,3.5l0.1-0.2L409.7,215.1z M403.5,216.6c-4.1,0-5.9,4.2-5.9,7.7c0,3.5,1.8,7.7,6,7.7
			c4.4,0,6-4.1,6-7.8C409.6,220.6,407.6,216.6,403.5,216.6z"/>
		<path class="st5" d="M419.6,225.2c0.1,4.1,1.9,7.5,6.6,7.5c2.7,0,4.9-1.9,5.5-4.6h2.4c-1.2,4.6-4,6.6-8.6,6.6
			c-5.7,0-8.4-4.9-8.4-10.1c0-5.2,2.8-10.1,8.5-10.1c6.4,0,8.7,4.7,8.7,10.6H419.6z M431.9,223.1c-0.3-3.7-2.2-6.5-6.2-6.5
			c-3.7,0-5.7,3.1-6,6.5H431.9z"/>
		<path class="st5" d="M446.5,214.5c3.6,0,6.6,1.3,7,5.3H451c-0.2-2.4-2.4-3.2-4.7-3.2c-2.1,0-4.3,0.8-4.3,3.1
			c0,2.8,3.7,2.5,8.9,4.4c2,0.7,3.2,2.4,3.2,4.4c0,4.3-4,6.2-8,6.2c-3.3,0-7.1-1.6-7.2-5.8h2.5c0.2,2.8,2.7,3.7,5.3,3.7
			c2.4,0,5-1.1,5-3.8c0-2.7-3-3.2-6-3.9c-3-0.7-6-1.6-6-5.1C439.5,215.9,443.2,214.5,446.5,214.5z"/>
		<path class="st5" d="M470.7,220.7c-0.2-3.1-1.8-4.1-4.5-4.1c-2.4,0-4.4,0.7-4.7,3.3H459c0.6-3.9,3.5-5.4,7.1-5.4
			c4.2,0,6.8,1.9,6.8,6.3v9c0,1.5,0.1,3,0.2,4.3h-2.4l-0.1-2.8h-0.1l-0.1,0.3c-0.8,1.6-3.4,3.1-6,3.1c-3.5,0-6.3-2.2-6.3-5.9
			c0-2.6,1.6-4.6,3.8-5.5c2.5-1.1,5.9-0.7,8.6-0.9V220.7z M465,232.6c5,0,5.9-4.1,5.7-8.1c-3.2,0.1-10-0.5-10,4.3
			C460.7,231.4,462.6,232.6,465,232.6z"/>
	</g>
</g>
</svg>
